# xmcd
#
# Track frame offsets:
#	150
#	18559
#	37593
#	58957
#	72489
#	91423
#	104929
#	125506
#	145247
#	167051
#	184437
#	200516
#	219618
#	239059
#	256413
#	273767
#	319416
#
# Disc length: 4447 seconds
#
# Revision: 3
# Processed by: cddbd v1.5.2PL0 Copyright (c) Steve Scherf et al.
# Submitted via: EasyCDDAExtractor 15.3.0.1
#
DISCID=12115d11
DTITLE=Soraya - Herencia (Deluxe Edition)
DYEAR=2006
DGENRE=Latin
TTITLE0=De Repente
TTITLE1=Quedate
TTITLE2=En Esta Noche
TTITLE3=Amor En Tus Ojos
TTITLE4=Avalancha
TTITLE5=Pueblito Viejo
TTITLE6=Lejos De Aqui
TTITLE7=Paris, Cali, Milan
TTITLE8=Torre De Marfil
TTITLE9=Cuerpo Y Alma
TTITLE10=En Donde Estas
TTITLE11=Half
TTITLE12=When Did I Say That
TTITLE13=You And I
TTITLE14=Dance Of The Waiting
TTITLE15=Tu Y Yo (Soul Solution Remix)
TTITLE16=En Donde Estas (Hardball Tropical Mix)
EXTD=
EXTT0=
EXTT1=
EXTT2=
EXTT3=
EXTT4=
EXTT5=
EXTT6=
EXTT7=
EXTT8=
EXTT9=
EXTT10=
EXTT11=
EXTT12=
EXTT13=
EXTT14=
EXTT15=
EXTT16=
PLAYORDER=
